<svg xmlns="http://www.w3.org/2000/svg" xmlns:xlink="http://www.w3.org/1999/xlink" xmlns:serif="http://www.serif.com/" viewBox="0 0 32 40" version="1.1" xml:space="preserve" style="" x="0px" y="0px" fill-rule="evenodd" clip-rule="evenodd" stroke-linejoin="round" stroke-miterlimit="2"><g transform="matrix(1,0,0,1,-8,-49)"><g><g transform="matrix(0.965517,0,0,0.965517,0.827586,2.24322)"><path d="M33.5,69L33.5,67C33.5,65.619 32.381,64.5 31,64.5C27.537,64.5 20.463,64.5 17,64.5C15.619,64.5 14.5,65.619 14.5,67L14.5,69C14.5,70.381 15.619,71.5 17,71.5C20.463,71.5 27.537,71.5 31,71.5C32.381,71.5 33.5,70.381 33.5,69ZM32.5,67L32.5,69C32.5,69.828 31.828,70.5 31,70.5L17,70.5C16.172,70.5 15.5,69.828 15.5,69C15.5,69 15.5,67 15.5,67C15.5,66.172 16.172,65.5 17,65.5L31,65.5C31.828,65.5 32.5,66.172 32.5,67Z"/></g><g transform="matrix(0.965517,0,0,0.965517,0.827586,2.24322)"><path d="M9.5,55L9.5,74.773C9.5,75.525 9.799,76.245 10.33,76.777C10.861,77.308 11.582,77.607 12.333,77.607C17.607,77.607 30.393,77.607 35.667,77.607C36.418,77.607 37.139,77.308 37.67,76.777C38.201,76.245 38.5,75.525 38.5,74.773L38.5,55C38.5,53.619 37.381,52.5 36,52.5C30.846,52.5 17.154,52.5 12,52.5C10.619,52.5 9.5,53.619 9.5,55ZM37.5,60.303L19.333,60.303C19.333,60.303 18.833,60.263 18.833,59.792C18.833,59.792 18.833,58.905 18.833,58.905C18.833,58.076 18.162,57.405 17.333,57.405L16.667,57.405C15.838,57.405 15.167,58.076 15.167,58.905L15.167,59.792C15.167,60.204 14.784,60.286 14.688,60.301L14.667,60.303L10.5,60.303L10.5,74.773C10.5,75.26 10.693,75.726 11.037,76.07C11.381,76.414 11.847,76.607 12.333,76.607L35.667,76.607C36.153,76.607 36.619,76.414 36.963,76.07C37.307,75.726 37.5,75.26 37.5,74.773L37.5,60.303ZM10.5,59.303L10.5,56.402L10.5,55C10.5,54.172 11.172,53.5 12,53.5C17.154,53.5 30.846,53.5 36,53.5C36.828,53.5 37.5,54.172 37.5,55L37.5,59.303L19.833,59.303L19.833,58.905C19.833,57.524 18.714,56.405 17.333,56.405C17.112,56.405 16.888,56.405 16.667,56.405C15.286,56.405 14.167,57.524 14.167,58.905L14.167,59.303L10.5,59.303Z"/></g><g transform="matrix(1.12644,0,0,1.12644,-185.132,36.8752)"><path d="M186,15.771C184.991,15.771 184.171,16.59 184.171,17.6C184.171,18.609 184.991,19.429 186,19.429C187.009,19.429 187.829,18.609 187.829,17.6C187.829,16.59 187.009,15.771 186,15.771ZM186,16.628C186.536,16.628 186.972,17.063 186.972,17.6C186.972,18.136 186.536,18.571 186,18.571C185.464,18.571 185.028,18.136 185.028,17.6C185.028,17.063 185.464,16.628 186,16.628Z"/></g><g transform="matrix(1.12644,0,0,1.12644,-180.336,36.8752)"><path d="M186,15.771C184.991,15.771 184.171,16.59 184.171,17.6C184.171,18.609 184.991,19.429 186,19.429C187.009,19.429 187.829,18.609 187.829,17.6C187.829,16.59 187.009,15.771 186,15.771ZM186,16.628C186.536,16.628 186.972,17.063 186.972,17.6C186.972,18.136 186.536,18.571 186,18.571C185.464,18.571 185.028,18.136 185.028,17.6C185.028,17.063 185.464,16.628 186,16.628Z"/></g><g transform="matrix(1.12644,0,0,1.12644,-175.508,36.8752)"><path d="M186,15.771C184.991,15.771 184.171,16.59 184.171,17.6C184.171,18.609 184.991,19.429 186,19.429C187.009,19.429 187.829,18.609 187.829,17.6C187.829,16.59 187.009,15.771 186,15.771ZM186,16.628C186.536,16.628 186.972,17.063 186.972,17.6C186.972,18.136 186.536,18.571 186,18.571C185.464,18.571 185.028,18.136 185.028,17.6C185.028,17.063 185.464,16.628 186,16.628Z"/></g></g></g><text x="0" y="47" fill="#000000" font-size="5px" font-weight="bold" font-family="'Helvetica Neue', Helvetica, Arial-Unicode, Arial, Sans-serif">Created by suhartono</text><text x="0" y="52" fill="#000000" font-size="5px" font-weight="bold" font-family="'Helvetica Neue', Helvetica, Arial-Unicode, Arial, Sans-serif">from the Noun Project</text></svg>